<svg width="425.0888427734375px" height="126.802490234375px" xmlns="http://www.w3.org/2000/svg" viewBox="37.45557861328126 11.5987548828125 425.0888427734375 126.802490234375" style="background: rgba(0, 0, 0, 0);" preserveAspectRatio="xMidYMid"><defs><linearGradient id="editing-sticker-gradient" x1="0.5" y1="0.2" x2="0.5" y2="0.8"><stop offset="0" stop-color="#fd9"></stop><stop offset="1" stop-color="#9df"></stop></linearGradient><filter id="editing-sticker" x="-100%" y="-100%" width="300%" height="300%"><feMorphology operator="erode" radius="1" in="SourceAlpha" result="alpha-erode"></feMorphology><feConvolveMatrix order="3,3" divisor="1" kernelMatrix="0 1 0 1 1 1 0 1 0" in="alpha-erode" result="alpha-round"></feConvolveMatrix><feMorphology operator="dilate" radius="3.5" in="alpha-round" result="dilate-shadow"></feMorphology><feGaussianBlur in="dilate-shadow" stdDeviation="1.5" result="shadow"></feGaussianBlur><feFlood flood-color="#fff" result="flood-sticker"></feFlood><feComposite operator="in" in="flood-sticker" in2="alpha-round" result="comp-sticker"></feComposite><feMorphology operator="dilate" radius="3" in="comp-sticker" result="morph-sticker"></feMorphology><feConvolveMatrix order="3,3" divisor="1" kernelMatrix="0 1 0 1 1 1 0 1 0" in="morph-sticker" result="sticker"></feConvolveMatrix><feMerge><feMergeNode in="shadow"></feMergeNode><feMergeNode in="sticker"></feMergeNode><feMergeNode in="SourceGraphic"></feMergeNode></feMerge></filter></defs><g filter="url(#editing-sticker)"><g transform="translate(100.7734363079071, 107.93000030517578)"><path d="M18.69-41.09L18.69-41.09L18.69-41.09Q16.38-41.09 14.85-39.42L14.85-39.42L14.85-39.42Q12.16-36.48 12.16-31.97L12.16-31.97L12.16-31.97Q12.16-27.46 14.46-26.56L14.46-26.56L14.46-26.56Q15.04-26.37 15.04-25.73L15.04-25.73L15.04-25.73Q15.04-23.81 13.76-22.50L13.76-22.50L13.76-22.50Q12.48-21.18 10.62-20.93L10.62-20.93L10.62-20.93Q10.05-20.93 10.05-20.48L10.05-20.48L10.05-20.48Q9.98-19.78 9.98-18.46L9.98-18.46L9.98-18.46Q9.98-17.15 10.11-15.58L10.11-15.58L10.11-15.58Q10.24-14.02 10.72-11.87L10.72-11.87L10.72-11.87Q11.20-9.73 12-8.16L12-8.16L12-8.16Q12.80-6.59 14.30-5.47L14.30-5.47L14.30-5.47Q15.81-4.35 18.21-4.35L18.21-4.35L18.21-4.35Q20.61-4.35 22.53-6.27L22.53-6.27L22.53-6.27Q24.45-8.19 25.22-11.26L25.22-11.26L25.22-11.26Q26.62-16.64 26.62-21.60L26.62-21.60L26.62-21.60Q26.62-26.56 25.98-30.34L25.98-30.34L25.98-30.34Q25.34-34.11 24.48-36.10L24.48-36.10L24.48-36.10Q23.62-38.08 22.40-39.30L22.40-39.30L22.40-39.30Q21.18-40.51 20.35-40.80L20.35-40.80L20.35-40.80Q19.52-41.09 18.69-41.09ZM7.04-34.75L7.04-34.75L7.30-35.14L7.30-35.14Q7.94-38.08 9.38-40.22L9.38-40.22L9.38-40.22Q10.82-42.37 12.26-43.42L12.26-43.42L12.26-43.42Q13.70-44.48 15.49-45.06L15.49-45.06L15.49-45.06Q17.86-45.82 19.65-45.82L19.65-45.82L19.65-45.82Q23.94-45.82 27.04-43.84L27.04-43.84L27.04-43.84Q30.14-41.86 31.74-38.46L31.74-38.46L31.74-38.46Q34.69-32 34.69-23.81L34.69-23.81L34.69-23.81Q34.69-10.05 28.29-3.78L28.29-3.78L28.29-3.78Q25.15-0.70 21.38 0.38L21.38 0.38L21.38 0.38Q19.01 1.09 16.83 1.09L16.83 1.09L16.83 1.09Q8.83 1.09 5.06-4.38L5.06-4.38L5.06-4.38Q1.28-9.86 1.28-18.24L1.28-18.24L1.28-18.24Q1.28-23.10 2.11-27.17L2.11-27.17L2.11-27.17Q2.94-31.23 3.84-32.90L3.84-32.90L4.67-34.56L4.67-34.56Q4.93-35.14 5.50-35.14L5.50-35.14L5.50-35.14Q6.08-35.14 6.37-35.04L6.37-35.04L6.37-35.04Q6.66-34.94 6.82-34.85L6.82-34.85L6.82-34.85Q6.98-34.75 7.04-34.75ZM45.50-34.37L45.50-34.37L45.44-28.16L45.44-28.16Q45.44-27.78 45.70-27.78L45.70-27.78L45.70-27.78Q45.95-27.78 46.21-27.97L46.21-27.97L46.21-27.97Q47.81-29.06 51.26-29.06L51.26-29.06L51.26-29.06Q57.09-29.06 59.33-25.09L59.33-25.09L59.33-25.09Q60.16-23.62 60.16-21.18L60.16-21.18L60.16-21.18Q60.16-18.75 59.87-14.46L59.87-14.46L59.87-14.46Q59.58-10.18 59.58-8.38L59.58-8.38L59.58-8.38Q59.58-2.11 61.38-0.06L61.38-0.06L61.38-0.06Q61.70 0.26 61.70 0.58L61.70 0.58L61.70 0.58Q61.70 1.22 58.94 1.22L58.94 1.22L58.94 1.22Q51.52 1.22 51.52-5.70L51.52-5.70L51.52-5.70Q51.52-8.38 52.80-13.25L52.80-13.25L52.80-13.25Q54.08-18.11 54.08-20.42L54.08-20.42L54.08-20.42Q54.08-22.72 52.99-23.97L52.99-23.97L52.99-23.97Q51.90-25.22 49.98-25.22L49.98-25.22L49.98-25.22Q48.06-25.22 46.94-24.38L46.94-24.38L46.94-24.38Q45.82-23.55 45.57-22.66L45.57-22.66L45.38-21.82L45.38-21.82Q45.31-20.61 45.31-14.08L45.31-14.08L45.31-14.08Q45.31-7.55 45.63-5.60L45.63-5.60L45.63-5.60Q45.95-3.65 45.95-3.39L45.95-3.39L45.95-3.39Q45.95-1.54 43.46-0.10L43.46-0.10L43.46-0.10Q40.96 1.34 38.53 1.34L38.53 1.34L38.53 1.34Q37.63 1.34 37.63 0.32L37.63 0.32L37.76-0.90L37.76-0.90Q39.17-11.65 39.17-24.19L39.17-24.19L39.17-24.19Q39.17-29.06 38.78-34.05L38.78-34.05L38.72-35.46L38.72-35.46Q38.59-37.25 37.98-38.53L37.98-38.53L37.98-38.53Q37.38-39.81 36.86-40.19L36.86-40.19L36.29-40.51L36.29-40.51Q35.84-40.77 35.84-41.09L35.84-41.09L35.84-41.09Q35.84-41.98 38.85-43.30L38.85-43.30L38.85-43.30Q41.86-44.61 43.49-44.61L43.49-44.61L43.49-44.61Q45.12-44.61 45.25-43.90L45.25-43.90L45.25-43.90Q45.50-40.64 45.50-34.37ZM65.15-24.90L65.15-24.90L64.83-36.99L64.83-36.99Q64.83-39.87 64.19-41.54L64.19-41.54L64.19-41.54Q63.55-43.20 63.55-43.33L63.55-43.33L63.55-43.33Q63.55-44.74 67.87-45.50L67.87-45.50L67.87-45.50Q72.19-46.27 74.46-46.27L74.46-46.27L74.46-46.27Q76.74-46.27 76.93-45.18L76.93-45.18L76.93-45.18Q80.96-27.20 83.71-20.22L83.71-20.22L83.71-20.22Q84.03-19.46 84.38-19.46L84.38-19.46L84.38-19.46Q84.74-19.46 84.99-20.03L84.99-20.03L84.99-20.03Q89.28-32.13 92.54-43.97L92.54-43.97L92.54-43.97Q92.80-44.74 93.82-45.15L93.82-45.15L93.82-45.15Q94.85-45.57 97.38-45.95L97.38-45.95L97.38-45.95Q99.90-46.34 102.40-46.34L102.40-46.34L102.40-46.34Q104.90-46.34 104.90-45.31L104.90-45.31L104.90-45.31Q104.90-45.25 104.70-44.32L104.70-44.32L104.70-44.32Q104.51-43.39 104.32-42.05L104.32-42.05L104.32-42.05Q104.13-40.70 103.87-38.78L103.87-38.78L103.87-38.78Q103.30-34.37 103.14-28.64L103.14-28.64L103.14-28.64Q102.98-22.91 102.98-17.15L102.98-17.15L103.10-10.43L103.10-10.43Q103.10-5.82 103.71-3.87L103.71-3.87L103.71-3.87Q104.32-1.92 104.32-1.63L104.32-1.63L104.32-1.63Q104.32-1.34 103.87-0.96L103.87-0.96L103.87-0.96Q101.89 0.64 97.86 0.64L97.86 0.64L97.86 0.64Q95.30 0.64 94.98-1.09L94.98-1.09L94.98-1.09Q94.78-1.98 94.78-3.94L94.78-3.94L94.78-3.94Q94.78-5.89 95.17-15.94L95.17-15.94L95.17-15.94Q95.55-25.98 95.55-30.56L95.55-30.56L95.55-30.56Q95.55-35.14 95.04-35.14L95.04-35.14L95.04-35.14Q94.98-35.14 94.98-35.10L94.98-35.10L94.98-35.10Q94.98-35.07 94.78-35.01L94.78-35.01L94.78-35.01Q94.59-34.94 93.79-33.02L93.79-33.02L93.79-33.02Q92.99-31.10 90.62-23.55L90.62-23.55L90.62-23.55Q88.26-16 86.34-9.44L86.34-9.44L86.34-9.44Q84.42-2.88 84.22-2.37L84.22-2.37L84.22-2.37Q83.52-0.64 81.54-0.64L81.54-0.64L81.54-0.64Q80.58-0.64 80-1.34L80-1.34L80-1.34Q77.95-10.82 72.70-28.42L72.70-28.42L70.91-34.24L70.91-34.24Q70.78-34.56 70.66-34.56L70.66-34.56L70.66-34.56Q70.34-34.56 70.21-34.11L70.21-34.11L70.21-34.11Q69.95-29.95 69.95-17.76L69.95-17.76L69.95-17.76Q69.95-5.57 70.85-2.37L70.85-2.37L70.85-2.37Q70.91-2.24 70.91-1.98L70.91-1.98L70.91-1.98Q70.91-0.64 68.80-0.03L68.80-0.03L68.80-0.03Q66.69 0.58 64.99 0.58L64.99 0.58L64.99 0.58Q63.30 0.58 63.30-0.19L63.30-0.19L63.30-0.19Q63.30-0.26 63.62-1.22L63.62-1.22L63.62-1.22Q64.58-4.48 64.86-10.69L64.86-10.69L64.86-10.69Q65.15-16.90 65.15-24.90ZM119.42 17.73L119.42 17.73L119.42 17.73Q119.42 18.50 118.66 18.50L118.66 18.50L118.59 18.50L118.59 18.50Q116.48 18.50 113.82 17.02L113.82 17.02L113.82 17.02Q111.17 15.55 111.17 13.63L111.17 13.63L111.17 13.63Q111.17 11.71 113.60 6.94L113.60 6.94L113.60 6.94Q116.03 2.18 116.03 0.58L116.03 0.58L116.03 0.58Q116.03-1.15 114.37-5.63L114.37-5.63L114.37-5.63Q112.26-11.46 111.01-15.10L111.01-15.10L111.01-15.10Q109.76-18.75 108.32-21.54L108.32-21.54L108.32-21.54Q106.88-24.32 106.24-24.83L106.24-24.83L105.60-25.28L105.60-25.28Q104.90-25.66 104.90-26.11L104.90-26.11L104.90-26.11Q104.90-27.01 107.68-27.94L107.68-27.94L107.68-27.94Q110.46-28.86 112.58-28.86L112.58-28.86L112.58-28.86Q113.54-28.86 114.18-27.33L114.18-27.33L114.18-27.33Q115.33-24.32 116.67-19.01L116.67-19.01L116.67-19.01Q119.94-8.13 120.77-8.13L120.77-8.13L120.77-8.13Q121.34-8.13 123.10-12.61L123.10-12.61L123.10-12.61Q124.86-17.09 124.86-19.84L124.86-19.84L124.86-19.84Q124.86-24.64 122.05-25.47L122.05-25.47L122.05-25.47Q121.41-25.60 121.41-26.11L121.41-26.11L121.41-26.11Q121.41-27.26 124.42-28.32L124.42-28.32L124.42-28.32Q127.42-29.38 129.86-29.38L129.86-29.38L129.86-29.38Q131.97-29.38 131.97-26.62L131.97-26.62L131.97-26.62Q131.97-24.51 131.07-21.70L131.07-21.70L131.07-21.70Q130.18-18.88 129.41-17.25L129.41-17.25L129.41-17.25Q128.64-15.62 125.60-9.70L125.60-9.70L125.60-9.70Q122.56-3.78 120.58 0.70L120.58 0.70L120.58 0.70Q118.40 6.08 118.40 11.65L118.40 11.65L118.40 11.65Q118.40 14.59 118.91 16.06L118.91 16.06L118.91 16.06Q119.42 17.54 119.42 17.73ZM155.33-24.45L154.37-24.26L154.37-24.26Q153.66-24.06 153.66-23.84L153.66-23.84L153.66-23.84Q153.66-23.62 155.20-23.04L155.20-23.04L155.20-23.04Q156.74-22.46 158.11-21.25L158.11-21.25L158.11-21.25Q159.49-20.03 160.06-18.30L160.06-18.30L160.06-18.30Q160.96-15.68 160.96-12.67L160.96-12.67L160.96-12.67Q160.96-9.66 161.41-7.71L161.41-7.71L161.41-7.71Q161.86-5.76 162.50-4.74L162.50-4.74L162.50-4.74Q163.78-2.56 164.86-2.05L164.86-2.05L165.31-1.79L165.31-1.79Q165.70-1.54 165.70-1.15L165.70-1.15L165.70-1.15Q165.70-0.19 162.56 0.54L162.56 0.54L162.56 0.54Q159.42 1.28 157.70 1.28L157.70 1.28L157.70 1.28Q154.30 1.28 153.38-1.44L153.38-1.44L153.38-1.44Q152.45-4.16 152.45-10.75L152.45-10.75L152.45-14.27L152.45-14.27Q152.45-19.84 149.12-21.38L149.12-21.38L149.12-21.38Q147.84-21.95 146.05-21.95L146.05-21.95L145.98-21.95L145.98-21.95Q145.41-21.95 145.41-23.07L145.41-23.07L145.41-23.07Q145.41-24.19 146.08-25.34L146.08-25.34L146.08-25.34Q146.75-26.50 147.26-26.50L147.26-26.50L147.26-26.50Q149.38-26.50 150.91-27.30L150.91-27.30L150.91-27.30Q152.45-28.10 153.15-29.25L153.15-29.25L153.15-29.25Q154.62-31.68 154.75-33.41L154.75-33.41L154.75-34.24L154.75-34.24Q154.75-36.61 153.98-38.24L153.98-38.24L153.98-38.24Q153.22-39.87 152.06-40.51L152.06-40.51L152.06-40.51Q150.14-41.54 148.16-41.54L148.16-41.54L148.16-41.54Q146.18-41.54 144.90-41.22L144.90-41.22L144.90-41.22Q143.10-40.70 143.10-40.13L143.10-40.13L143.10-40.13Q142.53-31.74 142.53-23.97L142.53-23.97L142.53-23.97Q142.53-16.19 142.75-12.06L142.75-12.06L142.75-12.06Q142.98-7.94 143.20-5.41L143.20-5.41L143.20-5.41Q143.42-2.88 143.42-2.43L143.42-2.43L143.42-2.43Q143.42-1.60 142.98-1.28L142.98-1.28L142.98-1.28Q140.35 1.15 134.72 1.15L134.72 1.15L134.72 1.15Q133.76 1.15 133.76 0.51L133.76 0.51L133.76 0.51Q133.76 0.32 133.95-0.38L133.95-0.38L133.95-0.38Q134.59-1.86 134.88-9.73L134.88-9.73L134.88-9.73Q135.17-17.60 135.17-24.10L135.17-24.10L135.17-24.10Q135.17-30.59 134.91-34.62L134.91-34.62L134.91-34.62Q134.53-40.70 133.63-41.92L133.63-41.92L133.63-41.92Q132.93-42.82 132.93-43.17L132.93-43.17L132.93-43.17Q132.93-43.52 133.63-43.90L133.63-43.90L133.63-43.90Q137.73-45.82 148.48-45.82L148.48-45.82L148.48-45.82Q157.12-45.82 161.41-40.96L161.41-40.96L161.41-40.96Q163.71-38.27 163.71-34.24L163.71-34.24L163.71-34.24Q163.71-31.81 162.75-29.89L162.75-29.89L162.75-29.89Q161.79-27.97 160.38-26.94L160.38-26.94L160.38-26.94Q157.70-24.90 155.33-24.45L155.33-24.45ZM172.86-16.26L172.86-16.26L172.93-14.66L172.93-14.66Q172.93-14.27 173.44-14.27L173.44-14.27L173.44-14.27Q175.49-14.46 177.02-15.33L177.02-15.33L177.02-15.33Q178.56-16.19 179.33-17.28L179.33-17.28L179.33-17.28Q180.86-19.65 180.99-21.38L180.99-21.38L181.06-22.14L181.06-22.14Q181.06-25.60 178.30-25.60L178.30-25.60L178.30-25.60Q176.26-25.60 174.98-23.81L174.98-23.81L174.98-23.81Q172.86-20.99 172.86-16.26ZM186.82-7.74L186.82-7.74L186.82-7.74Q186.82-5.31 185.82-3.49L185.82-3.49L185.82-3.49Q184.83-1.66 183.58-0.80L183.58-0.80L183.58-0.80Q182.34 0.06 180.67 0.58L180.67 0.58L180.67 0.58Q178.56 1.22 176.64 1.22L176.64 1.22L176.64 1.22Q171.26 1.22 168.70-2.82L168.70-2.82L168.70-2.82Q166.14-6.85 166.14-13.09L166.14-13.09L166.14-13.09Q166.14-19.33 169.31-24.19L169.31-24.19L169.31-24.19Q172.48-29.06 178.82-29.06L178.82-29.06L178.82-29.06Q184.58-29.06 186.62-25.02L186.62-25.02L186.62-25.02Q187.46-23.49 187.46-22.11L187.46-22.11L187.46-22.11Q187.46-20.74 187.33-19.94L187.33-19.94L187.33-19.94Q187.20-19.14 186.43-17.54L186.43-17.54L186.43-17.54Q185.66-15.94 184.38-14.66L184.38-14.66L184.38-14.66Q183.10-13.38 180.35-12.22L180.35-12.22L180.35-12.22Q177.60-11.07 173.89-10.69L173.89-10.69L173.89-10.69Q173.38-10.69 173.38-10.24L173.38-10.24L173.38-10.24Q173.38-9.66 173.79-8.54L173.79-8.54L173.79-8.54Q174.21-7.42 174.72-6.66L174.72-6.66L174.72-6.66Q176.13-4.86 178.88-4.86L178.88-4.86L178.88-4.86Q181.63-4.86 183.55-6.66L183.55-6.66L183.55-6.66Q184.58-7.62 185.22-9.02L185.22-9.02L185.22-9.02Q185.47-9.54 185.89-9.54L185.89-9.54L185.89-9.54Q186.30-9.54 186.56-8.83L186.56-8.83L186.56-8.83Q186.82-8.13 186.82-7.74ZM211.26-7.36L211.26-7.36L211.26-7.36Q211.26-3.71 208.35-1.31L208.35-1.31L208.35-1.31Q205.44 1.09 201.41 1.09L201.41 1.09L201.41 1.09Q195.52 1.09 192.77-2.46L192.77-2.46L192.77-2.46Q190.02-6.02 190.02-12.10L190.02-12.10L190.02-12.10Q190.02-18.56 192.90-23.55L192.90-23.55L192.90-23.55Q194.30-26.11 196.93-27.58L196.93-27.58L196.93-27.58Q199.55-29.06 203.07-29.06L203.07-29.06L203.07-29.06Q208.38-29.06 210.56-25.47L210.56-25.47L210.56-25.47Q211.46-24 211.46-22.02L211.46-22.02L211.46-22.02Q211.46-18.94 208.90-17.41L208.90-17.41L208.90-17.41Q207.87-16.83 207.01-16.83L207.01-16.83L207.01-16.83Q206.14-16.83 205.60-16.93L205.60-16.93L205.60-16.93Q205.06-17.02 204.16-17.79L204.16-17.79L204.16-17.79Q203.26-18.56 203.26-19.90L203.26-19.90L203.26-19.90Q203.33-20.61 204.35-21.06L204.35-21.06L204.35-21.06Q205.31-21.63 205.31-23.10L205.31-23.10L205.31-23.10Q205.31-25.60 202.24-25.60L202.24-25.60L202.24-25.60Q201.47-25.60 200.42-24.93L200.42-24.93L200.42-24.93Q199.36-24.26 198.66-23.20L198.66-23.20L198.66-23.20Q197.95-22.14 197.34-19.87L197.34-19.87L197.34-19.87Q196.74-17.60 196.74-15.52L196.74-15.52L196.74-15.52Q196.74-13.44 196.90-12.38L196.90-12.38L196.90-12.38Q197.06-11.33 197.60-9.50L197.60-9.50L197.60-9.50Q198.14-7.68 199.65-6.53L199.65-6.53L199.65-6.53Q201.15-5.38 203.39-5.38L203.39-5.38L203.39-5.38Q206.08-5.38 208.13-7.62L208.13-7.62L208.13-7.62Q208.96-8.51 209.47-9.79L209.47-9.79L209.47-9.79Q209.73-10.30 210.11-10.30L210.11-10.30L210.11-10.30Q210.69-10.30 210.98-9.25L210.98-9.25L210.98-9.25Q211.26-8.19 211.26-7.36ZM221.25-34.24L221.25-34.24L219.71-34.30L219.71-34.30Q217.98-34.30 217.47-33.47L217.47-33.47L217.47-33.47Q217.34-33.28 217.15-33.28L217.15-33.28L217.15-33.28Q216.32-33.28 216.32-36.13L216.32-36.13L216.32-36.13Q216.32-38.98 217.18-39.74L217.18-39.74L217.18-39.74Q218.05-40.51 220.19-40.51L220.19-40.51L220.19-40.51Q222.34-40.51 223.10-39.78L223.10-39.78L223.10-39.78Q223.87-39.04 223.87-37.31L223.87-37.31L223.87-37.31Q223.87-35.58 223.30-34.91L223.30-34.91L223.30-34.91Q222.72-34.24 221.25-34.24ZM216.13-1.92L216.13-1.92L216.83-16.83L216.83-16.83Q216.83-22.14 215.62-24.06L215.62-24.06L215.62-24.06Q215.23-24.70 214.72-25.02L214.72-25.02L214.72-25.02Q214.34-25.15 214.34-25.54L214.34-25.54L214.34-25.54Q214.34-26.69 217.60-27.78L217.60-27.78L217.60-27.78Q220.86-28.86 222.37-28.86L222.37-28.86L222.37-28.86Q223.87-28.86 223.94-28.10L223.94-28.10L223.94-28.10Q223.94-26.82 223.58-20.83L223.58-20.83L223.58-20.83Q223.23-14.85 223.23-8.26L223.23-8.26L223.23-8.26Q223.23-1.66 224-0.06L224-0.06L224-0.06Q224.19 0.26 224.19 0.58L224.19 0.58L224.19 0.58Q224.19 1.41 221.76 1.41L221.76 1.41L221.76 1.41Q219.33 1.41 216.77 0.13L216.77 0.13L216.77 0.13Q216.13-0.19 216.13-1.92ZM228.74-9.79L228.74-9.79L228.74-9.79Q228.86-16.26 228.86-20.42L228.86-20.42L228.86-20.42Q228.86-24.58 228.29-28.35L228.29-28.35L228.29-28.35Q228.29-28.99 229.57-28.99L229.57-28.99L229.57-28.99Q230.85-28.99 231.78-28.67L231.78-28.67L231.78-28.67Q232.70-28.35 233.09-27.97L233.09-27.97L233.09-27.97Q234.11-26.94 234.27-26.94L234.27-26.94L234.27-26.94Q234.43-26.94 235.26-27.52L235.26-27.52L235.26-27.52Q237.76-29.12 240.80-29.12L240.80-29.12L240.80-29.12Q243.84-29.12 246.11-27.58L246.11-27.58L246.11-27.58Q248.38-26.05 249.34-23.55L249.34-23.55L249.34-23.55Q251.07-19.26 251.07-14.46L251.07-14.46L251.07-14.46Q251.07-9.73 249.34-4.99L249.34-4.99L249.34-4.99Q248.38-2.43 246.53-0.80L246.53-0.80L246.53-0.80Q244.67 0.83 242.18 0.83L242.18 0.83L242.18 0.83Q237.25 0.83 237.25-4.86L237.25-4.86L237.25-4.86Q237.25-6.40 237.89-6.40L237.89-6.40L237.89-6.40Q238.02-6.40 238.62-6.11L238.62-6.11L238.62-6.11Q239.23-5.82 239.81-5.82L239.81-5.82L239.81-5.82Q244.35-5.82 244.35-15.46L244.35-15.46L244.35-15.46Q244.35-25.09 239.49-25.09L239.49-25.09L239.49-25.09Q238.14-25.09 237.22-24.48L237.22-24.48L237.22-24.48Q236.29-23.87 236.03-23.30L236.03-23.30L235.78-22.66L235.78-22.66Q234.88-16.90 234.88-0.45L234.88-0.45L234.88-0.45Q234.88 6.98 235.17 10.21L235.17 10.21L235.17 10.21Q235.46 13.44 235.46 14.08L235.46 14.08L235.46 14.08Q235.46 14.72 235.07 15.23L235.07 15.23L235.07 15.23Q233.79 16.90 231.62 18.21L231.62 18.21L231.62 18.21Q229.44 19.52 227.78 19.52L227.78 19.52L227.78 19.52Q227.14 19.52 227.14 18.69L227.14 18.69L227.14 18.69Q228.16 12.22 228.74-9.79ZM260.29-16.26L260.29-16.26L260.35-14.66L260.35-14.66Q260.35-14.27 260.86-14.27L260.86-14.27L260.86-14.27Q262.91-14.46 264.45-15.33L264.45-15.33L264.45-15.33Q265.98-16.19 266.75-17.28L266.75-17.28L266.75-17.28Q268.29-19.65 268.42-21.38L268.42-21.38L268.48-22.14L268.48-22.14Q268.48-25.60 265.73-25.60L265.73-25.60L265.73-25.60Q263.68-25.60 262.40-23.81L262.40-23.81L262.40-23.81Q260.29-20.99 260.29-16.26ZM274.24-7.74L274.24-7.74L274.24-7.74Q274.24-5.31 273.25-3.49L273.25-3.49L273.25-3.49Q272.26-1.66 271.01-0.80L271.01-0.80L271.01-0.80Q269.76 0.06 268.10 0.58L268.10 0.58L268.10 0.58Q265.98 1.22 264.06 1.22L264.06 1.22L264.06 1.22Q258.69 1.22 256.13-2.82L256.13-2.82L256.13-2.82Q253.57-6.85 253.57-13.09L253.57-13.09L253.57-13.09Q253.57-19.33 256.74-24.19L256.74-24.19L256.74-24.19Q259.90-29.06 266.24-29.06L266.24-29.06L266.24-29.06Q272-29.06 274.05-25.02L274.05-25.02L274.05-25.02Q274.88-23.49 274.88-22.11L274.88-22.11L274.88-22.11Q274.88-20.74 274.75-19.94L274.75-19.94L274.75-19.94Q274.62-19.14 273.86-17.54L273.86-17.54L273.86-17.54Q273.09-15.94 271.81-14.66L271.81-14.66L271.81-14.66Q270.53-13.38 267.78-12.22L267.78-12.22L267.78-12.22Q265.02-11.07 261.31-10.69L261.31-10.69L261.31-10.69Q260.80-10.69 260.80-10.24L260.80-10.24L260.80-10.24Q260.80-9.66 261.22-8.54L261.22-8.54L261.22-8.54Q261.63-7.42 262.14-6.66L262.14-6.66L262.14-6.66Q263.55-4.86 266.30-4.86L266.30-4.86L266.30-4.86Q269.06-4.86 270.98-6.66L270.98-6.66L270.98-6.66Q272-7.62 272.64-9.02L272.64-9.02L272.64-9.02Q272.90-9.54 273.31-9.54L273.31-9.54L273.31-9.54Q273.73-9.54 273.98-8.83L273.98-8.83L273.98-8.83Q274.24-8.13 274.24-7.74ZM297.22-8.77L297.22-8.77L297.22-8.77Q297.22-6.02 296.16-3.97L296.16-3.97L296.16-3.97Q295.10-1.92 293.76-0.96L293.76-0.96L293.76-0.96Q292.42 0 290.56 0.58L290.56 0.58L290.56 0.58Q288.13 1.34 286.14 1.34L286.14 1.34L286.14 1.34Q281.98 1.34 279.23-0.29L279.23-0.29L279.23-0.29Q276.48-1.92 276.48-5.50L276.48-5.50L276.48-5.50Q276.48-7.62 277.63-8.96L277.63-8.96L277.63-8.96Q279.42-10.94 281.92-10.94L281.92-10.94L281.92-10.94Q282.69-10.94 282.69-10.24L282.69-10.24L282.69-10.24Q282.69-10.18 282.40-9.25L282.40-9.25L282.40-9.25Q282.11-8.32 282.11-6.91L282.11-6.91L282.11-6.91Q282.11-5.50 283.23-4.42L283.23-4.42L283.23-4.42Q284.35-3.33 285.95-3.33L285.95-3.33L285.95-3.33Q287.55-3.33 288.51-3.87L288.51-3.87L288.51-3.87Q289.47-4.42 289.86-5.25L289.86-5.25L289.86-5.25Q290.43-6.40 290.43-7.42L290.43-7.42L290.43-7.42Q290.43-9.28 288.58-10.62L288.58-10.62L288.58-10.62Q286.72-11.97 284.48-12.74L284.48-12.74L284.48-12.74Q282.24-13.50 280.38-15.30L280.38-15.30L280.38-15.30Q278.53-17.09 278.53-19.78L278.53-19.78L278.53-19.78Q278.53-24.38 281.44-26.69L281.44-26.69L281.44-26.69Q284.35-28.99 289.34-28.99L289.34-28.99L289.34-28.99Q291.52-28.99 293.92-28.38L293.92-28.38L293.92-28.38Q296.32-27.78 296.32-26.34L296.32-26.34L296.32-26.34Q296.32-24.90 295.84-23.68L295.84-23.68L295.84-23.68Q295.36-22.46 294.66-22.46L294.66-22.46L294.66-22.46Q294.27-22.46 294.14-22.75L294.14-22.75L294.14-22.75Q294.02-23.04 293.70-23.42L293.70-23.42L293.70-23.42Q293.38-23.81 292.16-24.42L292.16-24.42L292.16-24.42Q290.94-25.02 290.08-25.02L290.08-25.02L290.08-25.02Q289.22-25.02 288.93-24.99L288.93-24.99L288.93-24.99Q288.64-24.96 287.94-24.80L287.94-24.80L287.94-24.80Q287.23-24.64 286.66-24.32L286.66-24.32L286.66-24.32Q285.18-23.49 285.18-21.89L285.18-21.89L285.18-21.89Q285.18-20.86 285.63-20.38L285.63-20.38L285.63-20.38Q286.08-19.90 286.34-19.65L286.34-19.65L286.34-19.65Q286.59-19.39 287.23-19.04L287.23-19.04L287.23-19.04Q287.87-18.69 288.13-18.56L288.13-18.56L288.13-18.56Q288.38-18.43 289.28-18.02L289.28-18.02L289.28-18.02Q290.18-17.60 290.43-17.47L290.43-17.47L290.43-17.47Q297.22-14.27 297.22-8.77Z" fill="url(#editing-sticker-gradient)" stroke="#000" stroke-width="2.5"></path></g></g><style>text {
  font-size: 64px;
  font-family: Arial Black;
  dominant-baseline: central;
  text-anchor: middle;
}</style></svg>